<?xml version="1.0" encoding="UTF-8"?>
<svg id="Layer_1" data-name="Layer 1" xmlns="http://www.w3.org/2000/svg" viewBox="0 0 612 612">
  <defs>
    <style>
      .cls-1 {
        fill: #fff;
      }
    </style>
  </defs>
  <path d="M439.7,408.93l-266.52-.14c-11.07,0-19.51-11.26-19.51-21.1l-.05-155.85c0-11.78,9.11-20.12,20.42-20.49l29.31-.14c13.85-11.14,33.2-10.64,46.81.12l187.76-.04c11.7,0,20.45,8.88,20.45,20.55l-.05,155.7c0,11.02-6.85,18.63-18.62,21.37ZM242.02,212.79c-11.8-5.16-22.2-4.26-31.04.15,11,6.24,22.8,6.02,31.04-.15ZM438.77,217.25l-188.21-.02c-.78,7.46-4.78,12.84-11.21,13.69-18.91,2.52-35.63,1.85-37.19-13.45l-22.34-.62c-5.57-.15-12.95,1.84-16.2,5.51-3.61,4.07-4.42,11.77-3.54,17.12,5.2-2.78,10.12-5.37,16.26-5.36l261.3.25c4.79,0,8.91,2.22,14.33,4.94,2.16-11.46-3.19-22.06-13.2-22.06ZM241.93,223.04l-30.2-.27c9.47,4.82,20.86,3.82,30.2.27ZM434.47,402.73c8.5,0,17.51-4.9,17.51-13.17l.08-133.79c0-9.06-7.61-15.49-16.74-15.49l-260.51-.03c-9.9,0-15.15,9.23-15.15,17.43l.04,127.9c0,11.19,8.35,17.12,18.81,17.12l255.96.03Z"/>
  <path class="cls-1" d="M434.47,402.73l-255.96-.03c-10.46,0-18.8-5.93-18.81-17.12l-.04-127.9c0-8.2,5.25-17.43,15.15-17.43l260.51.03c9.12,0,16.74,6.43,16.74,15.49l-.08,133.79c0,8.26-9.02,13.17-17.51,13.17ZM357.29,272.31l-.58-28.75-35.98.31.02,27.51,36.55.93ZM437.31,272.51c5.27-5.45,4.95-21.71-.82-25.15l-54.91.12c-6.46,3.17-6.14,23.04.74,25.06,18.24,1.95,36.73,1.84,54.99-.02ZM301.5,259.26c0-4.93-4-8.93-8.93-8.93s-8.93,4-8.93,8.93,4,8.93,8.93,8.93,8.93-4,8.93-8.93ZM408.18,336.21c0-33.4-27.1-60.48-60.52-60.48s-60.52,27.08-60.52,60.48,27.1,60.48,60.52,60.48,60.52-27.08,60.52-60.48Z"/>
  <path class="cls-1" d="M438.77,217.25c10.01,0,15.37,10.6,13.2,22.06-5.42-2.73-9.54-4.94-14.33-4.94l-261.3-.25c-6.14,0-11.07,2.58-16.26,5.36-.88-5.35-.06-13.05,3.54-17.12,3.24-3.66,10.62-5.66,16.2-5.51l22.34.62c1.56,15.3,18.28,15.97,37.19,13.45,6.43-.86,10.43-6.23,11.21-13.69l188.21.02ZM286.7,231.41c1.68-.02,5-5.05,4.39-6.61s-3.48-4.82-5.12-4.83l-13.98-.1c-2.08-.01-5.4,4.82-4.87,6.83.43,1.6,3.47,4.94,5.14,4.92l14.44-.21Z"/>
  <path class="cls-1" d="M242.02,212.79c-8.23,6.17-20.04,6.39-31.04.15,8.84-4.41,19.23-5.31,31.04-.15Z"/>
  <path class="cls-1" d="M241.93,223.04c-9.34,3.55-20.73,4.55-30.2-.27l30.2.27Z"/>
  <path d="M408.18,336.21c0,33.4-27.1,60.48-60.52,60.48s-60.52-27.08-60.52-60.48,27.1-60.48,60.52-60.48,60.52,27.08,60.52,60.48ZM402.03,336.26c0-30-24.34-54.33-54.36-54.33s-54.36,24.32-54.36,54.33,24.34,54.33,54.36,54.33,54.36-24.32,54.36-54.33Z"/>
  <path d="M437.31,272.51c-18.26,1.87-36.75,1.97-54.99.02-6.88-2.01-7.2-21.89-.74-25.06l54.91-.12c5.77,3.44,6.09,19.7.82,25.15ZM433.33,267.68c1.47-5.14,1.31-12.3-1.49-15.38l-46.5.14c-2.82,3.67-2.49,12.86,1.01,15.05l46.99.2Z"/>
  <path d="M357.29,272.31l-36.55-.93-.02-27.51,35.98-.31.58,28.75ZM350.88,249.39l-24.28.04.03,16.47,24.28-.04-.03-16.47Z"/>
  <path d="M301.5,259.26c0,4.93-4,8.93-8.93,8.93s-8.93-4-8.93-8.93,4-8.93,8.93-8.93,8.93,4,8.93,8.93ZM295.58,259.08c0-1.64-1.33-2.98-2.98-2.98s-2.98,1.33-2.98,2.98,1.33,2.98,2.98,2.98,2.98-1.33,2.98-2.98Z"/>
  <path d="M286.7,231.41l-14.44.21c-1.66.02-4.71-3.32-5.14-4.92-.54-2.01,2.79-6.84,4.87-6.83l13.98.1c1.65.01,4.52,3.28,5.12,4.83s-2.71,6.58-4.39,6.61Z"/>
  <path class="cls-1" d="M402.03,336.26c0,30-24.34,54.33-54.36,54.33s-54.36-24.32-54.36-54.33,24.34-54.33,54.36-54.33,54.36,24.32,54.36,54.33ZM392.64,336.13c0-24.82-20.13-44.94-44.97-44.94s-44.97,20.12-44.97,44.94,20.13,44.94,44.97,44.94,44.97-20.12,44.97-44.94Z"/>
  <path class="cls-1" d="M433.33,267.68l-46.99-.2c-3.5-2.18-3.83-11.38-1.01-15.05l46.5-.14c2.8,3.08,2.97,10.24,1.49,15.38Z"/>
  <rect class="cls-1" x="326.61" y="249.41" width="24.28" height="16.47" transform="translate(-.41 .53) rotate(-.09)"/>
  <circle class="cls-1" cx="292.6" cy="259.08" r="2.98"/>
  <path d="M392.64,336.13c0,24.82-20.13,44.94-44.97,44.94s-44.97-20.12-44.97-44.94,20.13-44.94,44.97-44.94,44.97,20.12,44.97,44.94ZM386.5,336.19c0-21.45-17.4-38.84-38.86-38.84s-38.86,17.39-38.86,38.84,17.4,38.84,38.86,38.84,38.86-17.39,38.86-38.84Z"/>
  <path class="cls-1" d="M386.5,336.19c0,21.45-17.4,38.84-38.86,38.84s-38.86-17.39-38.86-38.84,17.4-38.84,38.86-38.84,38.86,17.39,38.86,38.84ZM374.06,346.12l.25-20.44c.08-6.97-7.35-12.56-14.06-12.33l-29.97,1.03c-12.49.43-13.89,37.87-1.92,43.09,7.26,3.16,19,1.64,27.63,1.96,8.46.31,17.93-2.51,18.06-13.3Z"/>
  <path d="M374.06,346.12c-.13,10.8-9.6,13.62-18.06,13.3-8.63-.32-20.38,1.21-27.63-1.96-11.97-5.22-10.57-42.66,1.92-43.09l29.97-1.03c6.71-.23,14.14,5.36,14.06,12.33l-.25,20.44ZM364.39,351.37c6.8-6.81,5.95-24.37.69-30.29-10.02-2.36-24.44-2.67-34.62-.34-5.98,6.18-6.06,23.55.07,30.85,8.18,2.78,25.14,3.16,33.87-.22Z"/>
  <path class="cls-1" d="M364.39,351.37c-8.72,3.39-25.68,3-33.87.22-6.13-7.3-6.05-24.67-.07-30.85,10.19-2.33,24.6-2.03,34.62.34,5.26,5.92,6.1,23.48-.69,30.29Z"/>
</svg>